<?xml version="1.0" encoding="UTF-8" standalone="no"?>
<svg width="40px" height="40px" viewBox="0 0 40 40" version="1.1" xmlns="http://www.w3.org/2000/svg" xmlns:xlink="http://www.w3.org/1999/xlink">
    <!-- Generator: sketchtool 3.8.3 (29802) - http://www.bohemiancoding.com/sketch -->
    <title>1A40A90D-66E9-4D90-8F76-4F9728F97709</title>
    <desc>Created with sketchtool.</desc>
    <defs></defs>
    <g id="web2.0-icon-库" stroke="none" stroke-width="1" fill="none" fill-rule="evenodd">
        <g id="icon" transform="translate(-490.000000, -432.000000)">
            <g id="logo" transform="translate(490.000000, 432.000000)">
                <rect id="Rectangle-30" fill="#32B5C5" x="4" y="4" width="32" height="32" rx="5"></rect>
                <path d="M27.5878626,15.7109567 C27.4159013,15.1981284 27.1859924,14.6887291 26.897007,14.1934269 C26.8646467,14.1374196 26.4018187,13.337697 25.8825482,12.440438 L25.8791616,12.438533 C25.726767,12.1764038 25.4565958,12 25.1457861,12 C24.668283,12 24.2814641,12.4126249 24.2814641,12.9212621 C24.2814641,13.0820449 24.3232316,13.2306355 24.3913388,13.3620811 L24.3913388,13.3807502 C24.3913388,13.3807502 25.3711796,15.0845899 25.4242355,15.1752683 C25.6439848,15.55246 25.8046576,15.9387957 25.9333464,16.3194164 C26.0624114,16.7004181 26.1406783,17.0867539 26.1903476,17.4654696 C26.2885575,18.22252 26.2381356,18.9708073 26.0699371,19.6741365 C25.958181,20.1427686 25.7937454,20.5908266 25.5882949,21.0042135 C25.3143609,21.555142 24.9666754,22.0439671 24.5779751,22.4386849 C24.3563445,22.6638569 24.1219202,22.8589298 23.8810991,23.0185695 L20.1216559,25.4550755 C19.7536512,25.6989166 19.3660797,25.8718914 18.9702301,25.9820009 C18.5747567,26.0917293 18.1694999,26.1359255 17.7687586,26.1199235 C16.9672758,26.0879193 16.1819733,25.8090261 15.5204678,25.3118188 C15.0794642,24.9799663 14.6926453,24.5517204 14.3878561,24.0289861 C14.1594523,23.6369353 13.9957692,23.2243105 13.893044,22.8025416 C13.7899425,22.3811537 13.7470462,21.9490977 13.7624738,21.5219948 C13.7929527,20.667789 14.0537168,19.8288232 14.5210603,19.12397 C14.8070353,18.6926761 15.1690195,18.3109124 15.6024975,17.995443 L18.5864214,16.0184251 C18.7798309,15.8904085 18.9826474,15.8050641 19.1888505,15.7482948 C19.3954298,15.6911446 19.6072771,15.6732375 19.8168667,15.6823816 C20.2364222,15.7006696 20.6458181,15.8511653 20.9942561,16.1151995 C21.2264227,16.2912223 21.4239713,16.5221093 21.5869018,16.8013836 C21.7697753,17.114948 21.8788974,17.4426095 21.914268,17.781701 C21.9500149,18.1207925 21.9199122,18.455312 21.8205735,18.7742105 C21.754724,18.9868094 21.6561379,19.1822633 21.5345985,19.3666681 C21.3727968,19.6127952 21.1568104,19.8147261 20.8994328,19.9850339 L17.787949,22.0835913 C17.3872076,22.3636276 17.2709362,22.9294151 17.5234221,23.3626141 C17.7762842,23.796194 18.3038329,23.9352597 18.7120999,23.6681775 L21.8393877,21.5962901 C22.1848155,21.3673081 22.4929912,21.0910819 22.7466059,20.7767555 C23.0005969,20.462429 23.2109391,20.1157175 23.3648388,19.7450028 C23.672262,19.0039545 23.7806315,18.1737518 23.6579633,17.3618371 C23.5763099,16.8208147 23.4047248,16.2790302 23.1176209,15.786395 C22.9023871,15.4175854 22.6310871,15.1032589 22.3372101,14.8308427 C22.0433331,14.5584265 21.7065598,14.3462085 21.3603795,14.1793298 C20.6672662,13.8459533 19.8958862,13.7327958 19.135042,13.8589074 C18.6281888,13.9423467 18.1314953,14.1431346 17.670925,14.448317 L14.8047776,16.3220834 C14.74683,16.3609456 14.7107069,16.4093328 14.6621664,16.441718 L14.537993,16.5095363 C14.1252106,16.8150996 13.758711,17.1690502 13.4415044,17.559577 C13.0599535,18.0297331 12.7517778,18.5513244 12.5188586,19.1060629 C12.0530203,20.2155399 11.8923475,21.4541765 12.0714581,22.670715 C12.1907398,23.4814866 12.4624162,24.2819712 12.8928839,25.0203525 C13.2157347,25.573948 13.6078215,26.0578202 14.0488251,26.46473 C14.4902051,26.8712588 14.9805018,27.2008253 15.5012774,27.4488574 C16.5420761,27.9445407 17.7047904,28.1148484 18.8456804,27.9232046 C19.6065246,27.795569 20.3575854,27.5056267 21.0431729,27.0510917 L24.8090129,24.6122997 C25.4983633,24.1554786 26.105684,23.5355889 26.6042589,22.8044466 C27.1024575,22.0733043 27.4911579,21.2282425 27.7316027,20.3123144 C27.8918992,19.7019496 27.9852174,19.0591997 27.9983873,18.3996858 C28.0160726,17.5203338 27.8888889,16.6089777 27.5878626,15.7109567" id="Fill-4" fill="#FFFFFF"></path>
            </g>
        </g>
    </g>
</svg>