<svg xmlns="http://www.w3.org/2000/svg" xmlns:xlink="http://www.w3.org/1999/xlink" width="200" height="133" viewBox="0 0 200 133">
    <defs>
        <path id="a" d="M.572.452h66.39V83.44H.572z"/>
        <path id="b" d="M12.183 2.1H60.67a6.007 6.007 0 0 1 6.009 6.002v70.984a6.002 6.002 0 0 1-6.009 6.002H6.297a6.007 6.007 0 0 1-6.01-6.002v-65.09L12.184 2.1z"/>
        <path id="c" d="M6.173 2.392c.206-.507.583-.524.84-.04l6.88 12.973c.258.485.033.773-.5.644L5.67 14.11c-2.151-.519-3.222-2.59-2.385-4.64l2.887-7.077z"/>
        <path id="d" d="M66.39 2.49H6.004A6.003 6.003 0 0 0 0 8.495v87.574a6.005 6.005 0 0 0 6.004 6.006h67.66a6.003 6.003 0 0 0 6.004-6.006V15.768L66.39 2.49z"/>
        <path id="e" d="M67.956 2.392c.2-.511.567-.522.815-.034l8.128 15.96c.25.493.019.784-.523.649l-9.688-2.413c-2.142-.533-3.225-2.641-2.424-4.695l3.692-9.467z"/>
    </defs>
    <g fill="none" fill-rule="evenodd">
        <g transform="rotate(-15 121.956 -59.141)">
            <use fill="#FFF" xlink:href="#a"/>
            <path stroke="#D8E1E2" d="M1.072.952h65.39V82.94H1.072z"/>
            <circle cx="16.5" cy="27.5" r="2.5" fill="#D8E1E2"/>
            <circle cx="50.5" cy="27.5" r="2.5" fill="#32B5C5"/>
            <path fill="#D8E1E2" d="M33.632 48c-4.931 0-9.678-2.994-12.632-7.61l.742-.39c2.99 4.077 7.436 7.08 11.89 7.154 5.296-.075 9.627-2.924 12.617-7.002l.751.296C44.046 45.064 39.406 48 33.632 48z"/>
            <circle cx="21.415" cy="40.415" r="1" fill="#D8E1E2"/>
            <circle cx="46.415" cy="40.415" r="1" fill="#D8E1E2"/>
        </g>
        <g transform="scale(-1 1) rotate(-15 14.03 711.757)">
            <use fill="#FFF" xlink:href="#b"/>
            <path stroke="#D8E1E2" d="M12.39 2.6L.789 14.203v64.883a5.507 5.507 0 0 0 5.509 5.502h54.372a5.502 5.502 0 0 0 5.509-5.502V8.102A5.507 5.507 0 0 0 60.669 2.6H12.391z"/>
            <g transform="scale(-1 1) rotate(-18 0 62.667)">
                <use fill="#F7FAFB" xlink:href="#c"/>
                <path stroke="#D8E1E2" d="M6.606 2.653L3.75 9.658c-.72 1.764.183 3.517 2.04 3.964l7.608 1.834-6.79-12.803z"/>
            </g>
            <circle cx="16.5" cy="29.5" r="2.5" fill="#D8E1E2"/>
            <circle cx="51.5" cy="29.5" r="2.5" fill="#32B5C5"/>
            <path fill="#D8E1E2" d="M33.632 50c-4.931 0-9.678-2.994-12.632-7.61l.742-.39c2.99 4.077 7.436 7.08 11.89 7.154 5.296-.075 9.627-2.924 12.617-7.002l.751.296C44.046 47.064 39.406 50 33.632 50z"/>
            <circle cx="21.415" cy="42.415" r="1" fill="#D8E1E2"/>
            <circle cx="46.415" cy="42.415" r="1" fill="#D8E1E2"/>
        </g>
        <g transform="translate(62.105 6.554)">
            <use fill="#F7FAFB" xlink:href="#d"/>
            <path stroke="#D8E1E2" d="M66.183 2.99H6.004A5.503 5.503 0 0 0 .5 8.495v87.574a5.505 5.505 0 0 0 5.504 5.506h67.66a5.503 5.503 0 0 0 5.504-5.506V15.975L66.183 2.99z"/>
            <g transform="rotate(-18 70.5 10.5)">
                <use fill="#F7FAFB" xlink:href="#e"/>
                <path stroke="#D8E1E2" d="M68.378 2.687L64.73 12.04c-.693 1.775.232 3.568 2.079 4.028l9.601 2.391-8.032-15.773z"/>
            </g>
            <circle cx="22.5" cy="29.5" r="2.5" fill="#D8E1E2"/>
            <circle cx="57.5" cy="29.5" r="2.5" fill="#D8E1E2"/>
            <path fill="#D8E1E2" d="M39.632 50c-4.931 0-9.678-2.994-12.632-7.61l.742-.39c2.99 4.077 7.436 7.08 11.89 7.154 5.296-.075 9.627-2.924 12.617-7.002l.751.296C50.046 47.064 45.406 50 39.632 50z"/>
            <circle cx="27.415" cy="42.415" r="1" fill="#D8E1E2"/>
            <circle cx="52.415" cy="42.415" r="1" fill="#D8E1E2"/>
        </g>
        <path fill="#D8E1E2" d="M17.605 12.395L15 10.5l2.605-1.895L19.5 6l1.895 2.605L24 10.5l-2.605 1.895L19.5 15l-1.895-2.605M178.026 15.974L176 14.5l2.026-1.474L179.5 11l1.474 2.026L183 14.5l-2.026 1.474L179.5 18l-1.474-2.026"/>
        <path fill="#D8E1E2" d="M149.316 119.684L147 118l2.316-1.684L151 114l1.684 2.316L155 118l-2.316 1.684L151 122l-1.684-2.316" opacity=".476"/>
        <path fill="#D8E1E2" d="M192.316 90.684L190 89l2.316-1.684L194 85l1.684 2.316L198 89l-2.316 1.684L194 93l-1.684-2.316" opacity=".498"/>
        <path fill="#D8E1E2" d="M3.316 82.684L1 81l2.316-1.684L5 77l1.684 2.316L9 81l-2.316 1.684L5 85l-1.684-2.316" opacity=".601"/>
        <path fill="#D8E1E2" d="M55.447 123.553L54 122.5l1.447-1.053L56.5 120l1.053 1.447L59 122.5l-1.447 1.053L56.5 125l-1.053-1.447"/>
        <rect width="46.473" height="1" x="78.838" y="73.029" fill="#D8E1E2" rx=".5"/>
        <rect width="46.473" height="1" x="78.838" y="83.817" fill="#D8E1E2" rx=".5"/>
        <rect width="46.473" height="1" x="78.703" y="94.521" fill="#D8E1E2" rx=".5"/>
    </g>
</svg>
