<?xml version="1.0" encoding="UTF-8" standalone="no"?>
<svg width="24px" height="24px" viewBox="0 0 24 24" version="1.1" xmlns="http://www.w3.org/2000/svg" xmlns:xlink="http://www.w3.org/1999/xlink">
    <!-- Generator: sketchtool 41.2 (35397) - http://www.bohemiancoding.com/sketch -->
    <title>BBF14EFC-5AA1-496C-A149-6150028BF646</title>
    <desc>Created with sketchtool.</desc>
    <defs></defs>
    <g id="Page-1" stroke="none" stroke-width="1" fill="none" fill-rule="evenodd">
        <g id="【角色权限】权限配置2-2" transform="translate(-477.000000, -183.000000)">
            <g id="left" transform="translate(205.000000, 75.000000)">
                <g id="Group-2-Copy-12" transform="translate(272.000000, 108.000000)">
                    <circle id="Oval-2" stroke="#E8E8E8" fill="#FFFFFF" cx="12" cy="12" r="11"></circle>
                    <path d="M9.0364571,10.9960459 C9.31370548,10.9960459 9.54844789,10.8992457 9.74043401,10.7057293 C9.93243681,10.5121457 10.0284966,10.2755958 10.0284966,9.9960123 C10.0284966,9.71641202 9.93247019,9.47982846 9.74043401,9.28636256 C9.54844789,9.09279572 9.31380561,8.99604595 9.0364571,8.99604595 C8.75909191,8.99604595 8.52187958,9.09279572 8.32441959,9.28636256 C8.12719324,9.47989575 8.02849662,9.71641202 8.02849662,9.9960123 C8.02849662,10.2755453 8.12719324,10.5121289 8.32441959,10.7057293 C8.52189627,10.8992457 8.75910859,10.9960459 9.0364571,10.9960459 L9.0364571,10.9960459 Z M17.685935,12.996125 C18.0999307,13.4855836 18.1046268,13.9562498 17.7000676,14.4080645 L13.3248769,18.7991712 C13.2308071,18.8744294 13.1296562,18.9285977 13.021498,18.9615876 C12.9132955,18.9944598 12.8028555,19.0062566 12.6898097,18.9968898 C12.5769259,18.9874347 12.4710641,18.9639588 12.372254,18.9262708 C12.2734291,18.888568 12.1911658,18.8368445 12.1252139,18.7710414 C11.0714548,17.7167775 10.130609,16.770703 9.30257341,15.9330092 L8.25810354,14.8740472 C7.90994201,14.5351935 7.60191107,14.2293003 7.33370156,13.9562498 C7.06549205,13.6833023 6.84679067,13.4621078 6.67740604,13.2926073 L6.40927013,13.0243138 C6.39042672,13.005536 6.35993866,12.9655063 6.31761459,12.9042687 C6.27523163,12.8431048 6.2305374,12.7631337 6.18345831,12.6642964 C6.13640866,12.5654887 6.0940993,12.4548251 6.05642719,12.3324678 C6.01881397,12.2101695 6,12.0783276 6,11.9371042 L6,11.6829934 C6,11.5511957 6.00234071,11.3865111 6.00705156,11.1888072 C6.01177713,10.991118 6.01650271,10.774651 6.02118412,10.5393622 C6.02583609,10.3039407 6.02820624,10.0639537 6.02820624,9.81918026 C6.03761322,9.2450377 6.04702021,8.60970176 6.05636831,7.913143 C6.07521172,7.8001525 6.09641056,7.68714727 6.11990595,7.57420095 C6.14337189,7.46126936 6.20227228,7.35302116 6.29629797,7.24945635 C6.39035311,7.15534669 6.49624427,7.09176744 6.6138684,7.05883642 C6.7314042,7.02581704 6.83725119,7.00941044 6.93137994,7.00941044 L11.221893,7.00941044 C11.2407364,6.99998475 11.3065706,6.99764305 11.4194544,7.00237062 C11.5322352,7.0070982 11.6029569,7.01885086 11.6311042,7.03764334 C11.6875903,7.05649472 11.7511279,7.08939629 11.8217024,7.13645112 C11.8921444,7.18350595 11.9510742,7.23059023 11.9980061,7.27764506 L17.685935,12.996125 Z" id="Fill-1" fill="#84CEF0"></path>
                </g>
            </g>
        </g>
    </g>
</svg>